<?xml version="1.0" encoding="UTF-8"?>
<svg version="1.1" viewBox="0 0 2048 1151" width="4269" height="2400" xmlns="http://www.w3.org/2000/svg">
<path transform="translate(0)" d="m0 0h2048v1151h-2048z" fill="#FEFDFD"/>
<path transform="translate(1131,254)" d="m0 0 1 2-5 23-4 16-5 22-5 27-3 13-6 21-3 12-2 10-5 21-4 15-2 11-4 16-4 20-4 17-1 8-1 1h-8l-27-8-25-7-16-4-5 5-10 16-10 15-10 16-10 14-5 6-1 4 7 9 12 15 9 12 8 10v2l3 1 10 14 1 3h2l3 5v4l-16-1h-17l-33-1-35-2-42-2-67-2-10-1-23-1v-3l3-3h2v-2l8-7 3-1 1-3h2l1-3h2v-2l5-4 1-2h2l2-4 18-18h2l2-4 70-70 1-2h2l1-3h2l2-4 4-4h2l1-3h2l2-4 4-4h2l1-3h2l2-4 9-9 7-8 5-5 3-4h2v-2l5-4 22-22 4-5 3-3h2l1-3h2l1-3h2l2-4 3-1 1-3h2l2-4 46-46h2l1-3h2l2-4 22-22 1-2h2l1-3h2l1-3h2v-2h2l2-4 4-2v-2l5-4 5-5 16-17 20-20z"/>
<path transform="translate(1078,511)" d="m0 0 8 2 17 5 13 4 17 4 22 7 17 4 23 7 28 7 23 7 18 4 13 4 22 5 11 3 2 4-8 7-4 2v2l-7 6h-2v2l-5 4h-2v2l-8 7-11 10-8 7-4 4h-2l-1 3-8 7-4 4h-2v2l-10 8-15 14-4 4h-2v2l-8 7-9 8h-2v2l-8 7-14 12-8 7-5 5-15 13-12 11-8 7-11 10-11 9-3 3h-2v2l-8 7-10 9-15 14-10 9-9 7-10 10h-2v2l-11 9-15 14h-2v2l-8 7-4 2v2l-11 9-3 3h-2v2l-11 9-3 3h-2v2l-5 3-1-2 6-11 10-15 7-11 28-42 6-10 22-34 14-22 8-12 13-21 12-18 15-24 9-14 10-15 9-14 2-4 1-7-9-27-7-17-7-21-5-12-9-21-6-15v-2z"/>
<path transform="translate(998,489)" d="m0 0 23 6 45 13h10l3 3-3 1 5 11 5 13 6 14 6 15 7 20 6 15 9 27-2 9-9 15-8 11-11 18-11 17-7 11-10 15-13 21-15 23-7 11-22 34-12 19-20 30-9 14-10 15-6 11-1 5-7 3-1-3 3-19 7-23 7-28 8-30 5-17 7-28 11-43 4-15 5-20 4-17 5-16 1-7-5-1v-5l-2-2v-3h-2l-12-17-5-5-7-9-16-21-10-12-1-3 3-5 8-11 7-10 12-19 15-23 5-7z" fill="#FED424"/>
<path transform="translate(972,639)" d="m0 0h14l13 1v1l-10 1h-15l-1-1h-6v-1z" fill="#F4CC22"/>
</svg>
