<?xml version="1.0" encoding="UTF-8"?>
<svg version="1.1" viewBox="0 0 2048 1151" width="4269" height="2400" xmlns="http://www.w3.org/2000/svg">
<path transform="translate(0)" d="m0 0h2048v1151h-2048z" fill="#fff"/>
<path transform="translate(1122,493)" d="m0 0h60l4 6 6 14 6 12 12 27 8 16 14 31 4 9v2l3-3 11-24 7-15 9-19 8-16 8-19 8-16 3-5h61l1 107v145l-1 2h-50l-1-1-1-15v-96l-1-45-10 19-7 16-8 16-13 28-8 15-8 16-1 1h-17l-4-4-14-31-9-19-10-22-8-16-8-17-1-3h-2v158h-51l-1-1v-252z" fill="#222221"/>
<path transform="translate(701,493)" d="m0 0h48l5 6 13 22 9 15 8 14 9 15 11 19 10 16 16 28 12 19h1l1-154h51l1 2v250l-1 2h-49l-6-9-8-14-14-24-12-21-7-11-6-11-10-17-6-11-12-20-12-19-1 156-1 1h-51l-1-2v-244l1-7z" fill="#222221"/>
<path transform="translate(1626,557)" d="m0 0h90l11 9 15 15 2 1v2l4 2 7 7 2 3v113l-15 15-8 7-13 12-5 4h-90l-10-9-13-11-17-16-1-11v-92l1-13 6-7h2v-2l8-7 15-14z" fill="#232322"/>
<path transform="translate(500,330)" d="m0 0h2l-4 18-7 28-6 22-4 17-7 24-4 17-3 9-5 21-6 22-5 23-8-1-49-12h-2l-13 19-12 17-12 18 1 5 13 17 10 13 7 10 6 8v2h2l2 3v4l-21-1-50-2-14-1-40-1-15-1-47-2v-3l8-8h2v-2h2l2-4 5-5h2l2-4 3-1v-2h2v-2l8-7 29-29h2v-2l8-7 21-21h2v-2l8-7 7-7 1-2h2l2-4 3-1v-2h2v-2h2v-2l8-7 10-10 7-8 12-12h2l2-4 27-27 1-2h2l2-4 24-24 1-2h2l2-4 29-29 7-8 14-14 3-4h2v-2h2l2-4z" fill="#40403F"/>
<path transform="translate(976,556)" d="m0 0 75 1 10 9 5 5v2h2v2l4 2 17 17 1 2v134l-1 17h-49l-1-1v-21l-4 4-10 14-4 4h-61l-22-22-5-4v-2l-4-2-6-7v-44l9-9 1-2h2l1-3 8-7 5-5h2v-2l8-7 1-1 77-1v-28l-6-3-41-1h-62l-1-4 12-21 9-15z" fill="#232322"/>
<path transform="translate(1412,557)" d="m0 0h98l7 3 8 7 12 11 15 15 1 2v151l-1 1h-49l-1-1-1-20h-2l-2 5-10 13-3 3h-61l-15-15-2-1v-2h-2v-2l-3-1v-2h-2v-2h-2v-2h-2v-2l-3-1v-2h-2v-2h-2l-2-3v-44l28-28 10-8 75-1 1-27-4-4-3-1h-89l-14-1 2-5 14-25z" fill="#232322"/>
<path transform="translate(452,531)" d="m0 0 26 7 27 8 23 6 21 6 41 11 31 8 10 3v3l-7 7h-2v2l-11 9-13 12-10 9-11 9-7 7h-2v2l-11 9-7 7-8 7-4 2v2l-11 9-5 5h-2v2l-8 7-10 9-8 7-10 9h-2v2l-8 7-11 10-8 7-3 1v2l-8 7-13 12-8 7-8 8-6 5h-2v2l-16 14h-2v2l-11 9-5 5h-2v2l-8 7-12 11-3 3h-2v2l-2-1 4-8 16-24 16-25 17-26 10-15 13-20 12-19 8-11 11-17 11-16 12-19 7-11 2-4-1-7-11-31-9-25-6-16-4-11z" fill="#232322"/>
<path transform="translate(392,517)" d="m0 0 15 3 40 10 5 1 8 23 10 26 8 23 6 17-1 6-7 12-7 10-10 16-9 13-26 39-10 16-10 15-17 26-13 20-16 25-12 18-2 6-5 2v-7l4-12 7-25 11-39 7-25 10-38 5-18 8-30 4-12v-8l-1-3h-2l-8-11-10-14-14-18-6-9 1-5 14-20 13-19z" fill="#FED828"/>
<path transform="translate(1642,599)" d="m0 0h58l5 4v98l-3 3h-61l-4-4v-97z" fill="#fff"/>
<path transform="translate(1440,460)" d="m0 0h18l14 4 17 9 11 6 9 1 3-2 3-14 1-1h36l1 1v19l-5 14-7 9-7 6-8 4-6 2-8 1h-13l-14-3-14-7-13-8-6-2h-6l-4 4-1 2-1 9-2 3h-36l-2-1v-18l3-11 4-8 9-10 14-7z" fill="#FED828"/>
<path transform="translate(499,333)" d="m0 0h1v7l-9 36-6 22-4 17-7 24-4 17-3 9-2 9-2 3-8 30-5 21-4 1-26-6-14-4-13-3 2-6 10-16 7-13 6-10 8-14 13-22 14-24 20-35 15-25 9-16z" fill="#222221"/>
<path transform="translate(343,574)" d="m0 0h5 4l4 6 1 8 1 10v29h-2v2h8v1h-25l-68-1-15-1-47-2v-3l6-4 7-4 13-6 23-8 41-14 25-7z" fill="#222221"/>
<path transform="translate(452,531)" d="m0 0 26 7 27 8 23 6 21 6 41 11 31 8 10 3v3l-2 1v-2l-17-5-40-10-35-10-7-1 1 17 1 5 1 9h2l2 13-3 6-10 4-35 11-4 1-1 2-8-24-7-20-12-31-5-15z" fill="#414140"/>
<path transform="translate(974,670)" d="m0 0h63l1 19-1 2h-2v2l-6 5-5 6-2 1h-44l-5-5v-29z" fill="#fff"/>
<path transform="translate(1437,670)" d="m0 0h64v20l-15 15h-45l-4-3z" fill="#fff"/>
<path transform="translate(701,493)" d="m0 0h48l5 6 9 15-1 2-7-11-6-9-19-1h-29v250h49v-157l1-2 4 2 5 8-1 3-6-9-1 156-1 1h-51l-1-2v-244l1-7z" fill="#414140"/>
<path transform="translate(844,493)" d="m0 0h51l1 2v250l-1 2h-49l-6-9-5-9 1-2 7 11 4 7h47l-1-250h-48v155h-4l-8-13 1-2 8 12h1z" fill="#414140"/>
<path transform="translate(1293,493)" d="m0 0h61l1 107v145l-1 2h-50l-1-1-1-15v-96l-1-45-10 19-6 13-1-3 4-8 3-7 8-15 1-3h4v159h49v-251l-55 1-5 1-2 4-1-2z" fill="#414140"/>
<path transform="translate(1122,493)" d="m0 0h60l4 6 6 14 6 12-1 3-8-16-8-17h-57l-1 1v249h48l1-158h4l1 5-2-1v-2h-2v158h-51l-1-1v-252z" fill="#414140"/>
<path transform="translate(346,509)" d="m0 0h2v2l4 2h9l1 3 7 1 3-4 7 1 7 2v4l2-3 2 1-5 6-2-1-6 6-5 10h-2l-1-4v-11l-4 1-2 6 2 1-3 7v4l-5 2h-3l-1 3-4 1-1-5-1-16-1-5z" fill="#222221"/>
<path transform="translate(1640,598)" d="m0 0h62l5 6v97l-6 5h-59l-6-5v-100zm2 1-5 4v97l4 4h61l3-3v-98l-5-4z" fill="#414140"/>
<path transform="translate(1051,558)" d="m0 0 5 3 10 10v2h2v2l4 2 17 17 1 2v134l-1 17h-49l-1-1v-21l-4 4-6 8v-3l8-11 3 1v21h48l-1-150-11-11-2-1v-2l-3-1v-2h-2v-2h-2v-2h-2l-7-8-7-6z" fill="#414140"/>
<path transform="translate(1527,570)" d="m0 0 4 2 21 21 1 2v151l-1 1h-49l-1-1-1-20h-2l-1 3-1-2 3-4 3 1v21h49l-1-149-7-8-13-13-2-1v-2h-2z" fill="#414140"/>
<path transform="translate(973,668)" d="m0 0h65l1 1v21l-1 2h-2v2h-2v2l-5 5h-2l-2 4-1 1-46 1-6-5v-33zm1 2-1 1v29l5 5h44l6-5 5-6 2-1v-2h2l1-5-1-16z" fill="#414140"/>
<path transform="translate(483,624)" d="m0 0 1 3-7 13-8 11-3 6 3-3 2 3-1 7-4 6-7 1 1-5-2 3h-2l-2 5-5 5 2-5 11-16 12-19 7-11z" fill="#414140"/>
<path transform="translate(463,475)" d="m0 0 1 3-9 36-4 17-8-1-49-12v-2l7 1 17 4 28 7h3l3-11 3-15 7-25z" fill="#414140"/>
<path transform="translate(1744,584)" d="m0 0 4 2 7 7 2 3v113l-15 15-2-1 14-14 1-5v-104l-3-7-8-8z" fill="#414140"/>
<path transform="translate(468,654)" d="m0 0 3 3-1 7-4 6-7 1 1-4 2-5 3-3z" fill="#3F3F3E"/>
<path transform="translate(370,543)" d="m0 0 1 2-13 19-5 7h-2l1-11 7-1 2-5 4-6h2v-2h2z" fill="#222221"/>
<path transform="translate(1223,582)" d="m0 0 2 1 11 25v2l3-3 5-10 1 3-6 12-4-1-7-15-5-11z" fill="#414140"/>
<path transform="translate(371,545)" d="m0 0v3l-8 12-5 7h-2l2-5 12-16z" fill="#414140"/>
</svg>
